<?xml version="1.0" encoding="UTF-8" standalone="no"?>
<svg xmlns:inkscape="http://www.inkscape.org/namespaces/inkscape" xmlns:sodipodi="http://sodipodi.sourceforge.net/DTD/sodipodi-0.dtd" xmlns="http://www.w3.org/2000/svg" xmlns:svg="http://www.w3.org/2000/svg" width="178" height="38" viewBox="0 0 178 38" fill="none" version="1.1" id="svg249" sodipodi:docname="dq-logo-bn.svg" inkscape:export-filename="/home/wisedrette/Downloads/dq-logos/Logo - Platform - Marketing - Comunity - Email/dq-logo-bn.png" inkscape:export-xdpi="303.1579" inkscape:export-ydpi="303.1579" inkscape:version="1.1 (c68e22c387, 2021-05-23)">
  
  <g clip-path="url(#clip0)" id="g242">
    <path fill-rule="evenodd" clip-rule="evenodd" d="M21.1405 0.130028C20.8546 0.0878067 20.5682 0.0455132 20.2819 0H17.6132C17.4241 0.0289307 17.2351 0.0573044 17.046 0.0856781C16.4789 0.170769 15.9119 0.255859 15.3448 0.355972C7.87257 1.72646 1.72574 7.87588 0.355824 15.3513C0.254173 15.8915 0.175213 16.4317 0.0962524 16.972L0.0962181 16.9722C0.0646286 17.1884 0.0330391 17.4045 0 17.6206V20.2904C0.0504112 20.6019 0.0958786 20.9144 0.141346 21.2268C0.232277 21.8517 0.323208 22.4767 0.453674 23.0937C1.98371 30.4267 8.12165 36.3447 15.5139 37.644C16.1572 37.7544 16.8049 37.8267 17.4509 37.8988L17.451 37.8989L17.4512 37.8989L17.4513 37.8989L17.4515 37.8989L17.4519 37.899L17.4521 37.899C17.7435 37.9315 18.0346 37.9641 18.3249 38H19.6592C19.9216 37.9689 20.184 37.9399 20.4464 37.911C20.7089 37.8821 20.9713 37.8532 21.2337 37.822C25.6637 37.2881 29.4888 35.4459 32.5577 32.2244C37.0411 27.5255 38.7046 21.9012 37.6193 15.4937C36.3739 8.17846 30.405 1.99344 23.1196 0.462765C22.4666 0.325893 21.8049 0.228165 21.1406 0.130051L21.1405 0.130028ZM24.952 17.7185C26.7401 20.6197 26.1974 24.5354 23.68 26.6712C20.5665 24.1171 17.4353 24.0993 14.2774 26.689C13.0142 25.4876 12.2136 24.0548 12.0001 22.3105C11.7955 20.593 12.1691 19.0178 13.0943 17.5583C13.1921 17.407 13.2099 17.1667 13.1832 16.9799C12.5872 12.6637 14.5264 8.07166 18.565 5.82904C18.8675 5.66885 19.081 5.65105 19.3745 5.82904C22.8794 7.90258 24.6318 11.0084 24.8364 15.0309C24.8565 15.4034 24.8283 15.7787 24.7999 16.1552V16.1552L24.7999 16.1554C24.7782 16.4446 24.7563 16.7345 24.7563 17.0244C24.7563 17.2557 24.8275 17.5227 24.952 17.7185ZM23.5821 28.8248V30.0707C23.5821 30.2192 23.5841 30.3678 23.5861 30.5156L23.5861 30.517C23.5901 30.8117 23.594 31.1037 23.5821 31.3878C23.5554 31.9574 23.1818 32.3045 22.6481 32.3045C22.1233 32.3045 21.7319 31.9218 21.723 31.3789C21.7052 30.5068 21.7052 29.6347 21.723 28.7625C21.7319 28.2019 22.0966 27.8459 22.6392 27.837C23.1818 27.8281 23.5377 28.1663 23.5821 28.7358V28.8248ZM14.3288 30.5068C14.3298 30.3585 14.3307 30.2102 14.3307 30.0618C14.3307 29.9155 14.3287 29.7701 14.3268 29.6258C14.3228 29.34 14.3189 29.0582 14.3307 28.7803C14.3485 28.2642 14.7222 27.8904 15.2292 27.8815C15.7362 27.8726 16.1632 28.2286 16.1721 28.7447C16.1988 29.6436 16.1988 30.5513 16.1721 31.4501C16.1543 31.9396 15.7451 32.2778 15.247 32.2778C14.7221 32.2689 14.3485 31.9218 14.3307 31.3967C14.3248 31.1002 14.3268 30.8037 14.3288 30.5072V30.5068ZM19.9112 27.6382C19.9097 27.7189 19.9083 27.7998 19.9083 27.8815C19.9083 27.9646 19.9102 28.0476 19.9122 28.1307V28.1308C19.9162 28.2969 19.9201 28.463 19.9083 28.629C19.8816 29.1452 19.4902 29.519 18.992 29.5279C18.4939 29.5368 18.0847 29.1719 18.058 28.6557C18.0313 28.1129 18.0313 27.5611 18.058 27.0183C18.0847 26.5288 18.4939 26.1906 18.9831 26.1995C19.4813 26.2084 19.8638 26.5377 19.8994 27.0361C19.9184 27.2392 19.9148 27.4377 19.9112 27.6382ZM18.9298 32.2155C18.396 32.1977 18.0402 31.7972 18.0491 31.2543C18.058 30.7115 18.4405 30.3377 18.9831 30.3377C19.5258 30.3377 19.9261 30.756 19.9172 31.2988C19.9083 31.8328 19.4724 32.2333 18.9298 32.2155ZM18.6363 7.62666C15.9587 9.54891 14.7667 12.2098 14.6777 14.7105C14.6777 18.466 16.0388 21.296 18.3249 23.0046C18.743 23.3161 19.2501 23.3161 19.6592 22.9868C22.0611 21.0557 23.2975 18.5283 23.2886 15.458C23.2797 12.2098 21.9899 9.57561 19.339 7.64446C19.0899 7.45758 18.9031 7.43088 18.6363 7.62666ZM21.4739 12.9573H21.4917C21.4822 13.0903 21.4784 13.2232 21.4745 13.3553V13.3553V13.3554C21.4676 13.5948 21.4607 13.8315 21.4206 14.0609C21.1537 15.2801 19.9795 16.0721 18.7163 15.9208C17.4976 15.7784 16.5636 14.7728 16.5547 13.5447L16.553 13.4375C16.5441 12.8938 16.5351 12.3443 16.6437 11.8182C16.9016 10.5901 18.0936 9.81589 19.3479 9.97607C20.5666 10.1363 21.4562 11.1419 21.4739 12.3789V12.9573ZM16.4923 23.5118L15.2885 24.106L14.473 24.5086C13.4767 23.0224 13.2632 21.4027 13.8325 19.5427C14.473 21.1179 15.3537 22.4172 16.4923 23.5118ZM23.4757 24.5176C24.4364 23.0136 24.6944 21.4117 24.0895 19.6852C23.4757 21.1536 22.595 22.4351 21.4475 23.5386C21.8654 23.737 22.2671 23.932 22.6702 24.1278C22.9364 24.257 23.2033 24.3866 23.4757 24.5176ZM19.919 13.1336L19.919 13.1341V13.1342C19.9209 13.2617 19.9229 13.388 19.917 13.5181C19.8903 13.9987 19.5345 14.3458 19.0719 14.3814C18.6449 14.417 18.2001 14.1233 18.1467 13.6694C18.0934 13.1889 18.0845 12.6994 18.1556 12.2188C18.2179 11.7383 18.6271 11.498 19.1431 11.5514C19.5878 11.5959 19.9081 11.9341 19.9259 12.4146C19.9259 12.4981 19.9237 12.5837 19.9215 12.6704L19.9215 12.6706C19.9192 12.7595 19.917 12.8496 19.917 12.9397C19.917 13.0051 19.918 13.0695 19.919 13.1336ZM162.006 16.0186H163.99C164.034 14.6481 163.243 13.4378 161.926 12.8237C160.707 12.2631 159.417 12.1741 158.101 12.3343C157.14 12.45 156.268 12.7703 155.486 13.3577C153.822 14.6036 153.484 18.0654 156.242 19.1156C156.882 19.3558 157.576 19.5071 158.252 19.6406C158.628 19.715 159.008 19.7691 159.387 19.8232C159.916 19.8986 160.444 19.9739 160.956 20.1034C161.855 20.3259 162.264 20.931 162.264 21.7765C162.264 22.6041 161.837 23.1915 160.974 23.4851C160.049 23.7966 159.106 23.8322 158.163 23.6275C157.114 23.3961 156.268 22.9156 156.091 21.7409H153.991C154.045 22.9423 154.516 23.8856 155.459 24.5886C156.349 25.2561 157.38 25.5676 158.475 25.6477C159.951 25.7634 161.383 25.621 162.691 24.8645C163.945 24.1348 164.479 23.0046 164.435 21.5896C164.381 20.0411 163.598 18.991 162.122 18.5193C161.59 18.3493 161.033 18.2406 160.477 18.1322L160.476 18.132C160.363 18.11 160.251 18.088 160.138 18.0654C159.822 18.0062 159.504 17.9555 159.186 17.9048C158.643 17.8183 158.1 17.7317 157.567 17.6027C156.909 17.4425 156.437 17.0153 156.375 16.2767C156.304 15.4757 156.642 14.924 157.372 14.5591C158.074 14.212 158.83 14.1497 159.587 14.2298C160.734 14.3455 161.721 14.7015 162.006 16.0186ZM119.535 25.6491C119.7 25.6485 119.87 25.6479 120.045 25.6479C120.022 25.5793 120.002 25.5146 119.983 25.4536C119.939 25.3088 119.901 25.1848 119.832 25.0784L119.832 25.0781L119.832 25.0778L119.832 25.0776L119.831 25.0775L119.831 25.0774L119.831 25.0773L119.831 25.0773L119.831 25.0772L119.831 25.0771C119.529 24.5703 119.227 24.0634 118.889 23.5744C118.711 23.3074 118.738 23.1294 118.916 22.8713C120.535 20.4952 120.357 16.7753 118.542 14.5861C116.55 12.1833 112.689 11.5603 109.824 13.1444C106.364 15.0488 105.91 19.9257 107.725 22.7467C109.638 25.7191 113.756 26.609 116.87 24.7313C116.934 24.6944 116.999 24.6599 117.066 24.6241C117.128 24.5908 117.193 24.5563 117.261 24.5177C117.343 24.6385 117.418 24.7556 117.492 24.8696L117.492 24.8698L117.492 24.87L117.492 24.8701C117.619 25.0668 117.74 25.2541 117.875 25.4343C117.946 25.5322 118.071 25.639 118.177 25.639C118.62 25.6522 119.058 25.6507 119.535 25.6491ZM109.104 17.4783C109.575 15.4849 111.23 14.3191 113.383 14.3191C115.936 14.3013 117.955 16.0723 117.822 19.2226C117.777 20.4685 117.457 21.6343 116.496 22.5065C115.117 23.7613 113.489 23.9748 111.773 23.4053C110.109 22.8535 109.202 21.5898 108.988 19.8901C108.89 19.098 108.926 18.2526 109.104 17.4783ZM174.237 14.3279H178V12.468C177.978 12.4652 177.955 12.4615 177.931 12.4578C177.88 12.4497 177.827 12.4413 177.778 12.4413H168.66C168.572 12.4413 168.489 12.4567 168.407 12.472L168.381 12.4769C168.364 12.48 168.347 12.483 168.331 12.4858V14.3546C168.648 14.3546 168.962 14.3561 169.274 14.3576C170.044 14.3612 170.8 14.3647 171.56 14.3457C171.987 14.3368 172.111 14.4525 172.111 14.8886C172.098 17.4005 172.1 19.9074 172.101 22.4169V22.4177V22.4185V22.4194V22.4202V22.421V22.4219V22.4227V22.4312C172.102 23.2686 172.102 24.1064 172.102 24.9447V25.5054H174.237V14.3279ZM50.5189 12.5099H50.519C51.8601 12.4777 53.1901 12.4457 54.5031 12.5746C57.243 12.8416 59.2534 14.9418 59.6715 17.6739C59.9739 19.614 59.6715 21.4294 58.515 23.0491C57.3764 24.6421 55.7663 25.4163 53.8449 25.4964C52.6581 25.5461 51.467 25.5351 50.2625 25.5239H50.2624H50.2624H50.2624H50.2623H50.2623H50.2622H50.2621L50.2616 25.5239C49.7419 25.519 49.2197 25.5142 48.6943 25.5142C48.7032 21.1821 48.7032 16.85 48.7032 12.5446V12.539C49.3103 12.539 49.9157 12.5245 50.5189 12.51L50.5189 12.5099ZM50.8471 23.494C51.1863 23.494 51.5205 23.4999 51.8511 23.5058C52.5957 23.5189 53.3226 23.5317 54.0495 23.4762C55.0902 23.3962 55.962 22.8711 56.6203 22.0435C57.8301 20.5217 57.9724 18.0922 56.9583 16.3924C56.3623 15.3957 55.5083 14.6926 54.3697 14.5325C53.5533 14.4185 52.7235 14.4036 51.8801 14.3885L51.88 14.3885C51.5379 14.3824 51.1936 14.3762 50.8471 14.3634V23.494ZM103.402 25.5586C103.177 25.5586 102.961 25.5601 102.751 25.5616C102.246 25.5652 101.777 25.5685 101.312 25.5497C101.196 25.5408 101.045 25.3895 100.983 25.2649C100.636 24.5797 100.307 23.8855 99.9863 23.1825C99.8796 22.9511 99.755 22.8532 99.4882 22.8532C98.7765 22.8568 98.0649 22.8575 97.3532 22.8582C96.2858 22.8593 95.2183 22.8603 94.1508 22.871C94.0085 22.871 93.795 23.0045 93.7327 23.138C93.3769 23.8321 93.0478 24.5441 92.7275 25.2649C92.6297 25.4874 92.5051 25.5764 92.2561 25.5675C91.7852 25.5542 91.3095 25.5558 90.8067 25.5574C90.635 25.558 90.4601 25.5586 90.2812 25.5586C90.2938 25.5033 90.3043 25.4508 90.3142 25.4009C90.3393 25.2744 90.3611 25.1649 90.4058 25.0691C91.147 23.4836 91.8908 21.8994 92.6347 20.3151L92.6358 20.3127L92.6369 20.3104L92.638 20.3081L92.639 20.3058L92.6432 20.297C93.8339 17.761 95.0248 15.2245 96.2057 12.6813C96.3441 12.3781 96.5508 12.3825 96.7644 12.3871C96.8392 12.3887 96.9147 12.3903 96.9885 12.3788C97.2554 12.3432 97.4066 12.4411 97.5311 12.6991C98.8846 15.6222 100.247 18.5408 101.609 21.4581L101.613 21.4666C102.165 22.6498 102.717 23.8328 103.269 25.0157C103.31 25.1216 103.332 25.2275 103.357 25.3514L103.357 25.3515C103.37 25.415 103.384 25.4832 103.402 25.5586ZM95.1507 19.7126L95.1504 19.7134L94.5867 20.9933H99.1412C98.3851 19.2846 97.6557 17.6026 96.8729 15.7961C96.2791 17.151 95.7153 18.4308 95.1516 19.7106L95.1507 19.7126ZM75.6157 25.561H75.6161H75.6165L75.617 25.561C75.8053 25.5598 75.9988 25.5587 76.1993 25.5587C76.1832 25.5084 76.1685 25.4614 76.1546 25.4169C76.0995 25.2409 76.0569 25.1045 75.9858 24.9624C75.2589 23.3948 74.5294 21.8284 73.7997 20.2619C72.6364 17.7644 71.4728 15.2663 70.3194 12.7615C70.1504 12.3967 69.9191 12.3789 69.5899 12.37C69.2608 12.3611 69.074 12.4323 68.9139 12.7704C67.0195 16.8365 65.1163 20.8937 63.2131 24.9508L63.2118 24.9535C63.166 25.0565 63.1313 25.1706 63.0911 25.3028L63.0911 25.3028L63.091 25.3029C63.0687 25.3762 63.0447 25.4552 63.0161 25.5409C63.2417 25.5409 63.4605 25.5424 63.6745 25.5439H63.6749H63.6752H63.6756C64.1953 25.5475 64.6865 25.5509 65.1777 25.532C65.2845 25.532 65.4179 25.3807 65.4713 25.265C65.8182 24.562 66.1562 23.8589 66.4765 23.1381C66.5832 22.9156 66.7078 22.8444 66.948 22.8444L66.9568 22.8444C68.7241 22.8533 70.4824 22.8622 72.2408 22.8444C72.5255 22.8444 72.6589 22.9601 72.7657 23.2004C73.077 23.8945 73.4061 24.5709 73.7442 25.2472C73.8064 25.3718 73.9488 25.532 74.0644 25.5409C74.5669 25.5673 75.0694 25.5643 75.6157 25.561ZM71.1502 19.2868L71.1522 19.2914L71.1544 19.2964C71.4032 19.866 71.652 20.4356 71.9028 21.0112H67.3483C68.1044 19.2847 68.8427 17.6027 69.6344 15.8051C70.1498 16.9964 70.6495 18.1403 71.1491 19.2842L71.1497 19.2855L71.1502 19.2868ZM125.187 12.3968H127.358V12.9485V20.6019C127.358 22.8979 128.986 24.1527 131.227 23.5743C132.526 23.2361 133.229 22.3017 133.229 20.8422C133.235 19.1098 133.233 17.3775 133.231 15.6425V15.6405V15.6386V15.6266C133.23 14.7554 133.229 13.8836 133.229 13.0108V12.4057H135.364V12.9129V20.9668C135.364 23.423 133.789 25.2118 131.343 25.541C130.418 25.6656 129.511 25.6389 128.612 25.3986C126.433 24.8113 125.187 23.2272 125.17 20.9668C125.158 19.1404 125.162 17.3139 125.166 15.4875V15.4848C125.168 14.5712 125.17 13.6575 125.17 12.7439C125.17 12.6511 125.175 12.5698 125.182 12.4724L125.187 12.3968ZM149.223 12.4678H141.324V25.5053H149.321V23.5474H143.503V19.7474H148.912V17.7985H143.503V14.3189H149.223V12.4678ZM88.0661 12.4678V14.3456H84.3122V25.5052H82.1683V24.9179C82.1683 24.0785 82.1678 23.2397 82.1672 22.4011V22.4003C82.1656 19.8874 82.1639 17.3771 82.1772 14.8617C82.1772 14.4613 82.0794 14.3189 81.6613 14.3367C81.0066 14.3557 80.3473 14.3521 79.69 14.3485H79.6898C79.4273 14.347 79.1651 14.3456 78.9037 14.3456H78.4055V12.4589C81.6168 12.4678 84.8103 12.4678 88.0661 12.4678Z" fill="#232A3D" id="path240"/>
  </g>
  <defs id="defs247">
    <clipPath id="clip0">
      <rect width="178" height="38" fill="white" id="rect244"/>
    </clipPath>
  </defs>
  <path style="fill:none;stroke-width:0.0986403" d="m 13.728313,25.984892 c -0.615375,-0.68001 -1.26862,-1.907067 -1.519243,-2.853745 -0.229169,-0.86564 -0.222254,-2.585081 0.01388,-3.452358 0.09601,-0.352611 0.363065,-1.018433 0.593462,-1.479605 l 0.418905,-0.838493 -0.04621,-1.410225 c -0.05141,-1.568774 0.05431,-2.475502 0.439363,-3.76839 0.533615,-1.791714 1.426969,-3.2902517 2.736507,-4.5902958 0.863548,-0.8572885 2.23317,-1.8213234 2.587586,-1.8213234 0.612139,0 2.933169,1.9391795 3.83693,3.2056873 1.367795,1.9167929 1.942826,3.8999099 1.959278,6.7569819 l 0.0099,1.726205 0.415297,0.838442 c 0.530018,1.070058 0.742137,1.97225 0.742137,3.15649 0,1.74056 -0.6021,3.37316 -1.667485,4.521399 l -0.574992,0.619709 -0.535153,-0.406019 c -0.294335,-0.223309 -0.899271,-0.582261 -1.344304,-0.79767 -2.186856,-1.058498 -4.414109,-0.875984 -6.530963,0.535188 -0.41972,0.2798 -0.814815,0.542099 -0.877989,0.582887 -0.07126,0.04601 -0.320649,-0.153244 -0.656947,-0.524865 z m 1.834163,-1.928052 c 0.500749,-0.250399 0.926088,-0.46948 0.945198,-0.486848 0.01911,-0.01737 -0.242966,-0.354245 -0.582392,-0.748617 -0.745704,-0.866419 -1.270288,-1.661601 -1.747842,-2.649436 l -0.357646,-0.739802 -0.142019,0.443881 c -0.218984,0.684435 -0.206969,2.484819 0.02107,3.156489 0.25503,0.751187 0.658194,1.479604 0.81893,1.479604 0.07384,0 0.543958,-0.204871 1.044706,-0.455271 z m 8.335423,-0.21055 c 0.166515,-0.366203 0.350391,-0.843375 0.408614,-1.060384 0.215884,-0.804655 0.05457,-3.066988 -0.215555,-3.022942 -0.04175,0.0068 -0.256571,0.356844 -0.477378,0.777858 -0.42851,0.817048 -0.908433,1.502222 -1.695963,2.421285 -0.268992,0.313917 -0.460944,0.598892 -0.426561,0.633275 0.121233,0.121233 1.79012,0.9003 1.94607,0.90846 0.102806,0.0054 0.263801,-0.224372 0.460773,-0.657552 z M 19.777378,22.951343 C 20.357893,22.5267 21.322192,21.481761 21.80822,20.750668 22.718489,19.38143 23.210276,17.823361 23.29855,16.029047 23.413896,13.68443 22.907505,11.736222 21.721739,9.9626691 21.253883,9.2628959 19.85646,7.8700381 19.346973,7.5956613 18.99066,7.4037743 18.985776,7.4037805 18.618354,7.5965848 c -0.584652,0.3067959 -2.103214,1.887359 -2.63006,2.7374422 -1.015653,1.63879 -1.401237,3.1583 -1.30728,5.151721 0.138568,2.939857 1.142922,5.332771 2.934459,6.991459 0.976928,0.904486 1.435963,1.005158 2.161905,0.474136 z" id="path480"/>
  <path style="fill:#ffffff;stroke-width:0.0986403" d="m 18.593694,15.833724 c -0.85109,-0.181049 -1.399851,-0.600529 -1.739337,-1.329571 -0.190424,-0.408934 -0.231712,-0.660261 -0.232505,-1.415295 -0.0014,-1.321535 0.129712,-1.741005 0.731995,-2.342116 0.809914,-0.8083394 1.907097,-0.9575086 2.874175,-0.390763 0.837391,0.490743 1.228138,1.307122 1.223829,2.556916 -0.0032,0.925374 -0.138455,1.469687 -0.493445,1.985647 -0.466112,0.677472 -1.5539,1.107663 -2.364712,0.935182 z m 0.873458,-1.523485 c 0.386741,-0.199991 0.507506,-0.54501 0.507506,-1.44991 0,-0.751314 -0.01547,-0.807538 -0.30063,-1.0927 -0.271146,-0.271145 -0.345741,-0.295546 -0.76057,-0.248789 -0.692634,0.07807 -0.812965,0.284111 -0.812965,1.392017 0,0.966244 0.112937,1.274469 0.528416,1.442135 0.311921,0.125876 0.53406,0.114546 0.838243,-0.04275 z" id="path1061"/>
  <path style="fill:#ffffff;stroke-width:0.0986403" d="m 13.728313,25.984892 c -0.615375,-0.68001 -1.26862,-1.907067 -1.519243,-2.853745 -0.229169,-0.86564 -0.222254,-2.585081 0.01388,-3.452358 0.09601,-0.352611 0.363065,-1.018433 0.593462,-1.479605 l 0.418905,-0.838493 -0.04621,-1.410225 c -0.05141,-1.568774 0.05431,-2.475502 0.439363,-3.76839 0.533615,-1.791714 1.426969,-3.2902517 2.736507,-4.5902958 0.863548,-0.8572885 2.23317,-1.8213234 2.587586,-1.8213234 0.612139,0 2.933169,1.9391795 3.83693,3.2056873 1.367795,1.9167929 1.942826,3.8999099 1.959278,6.7569819 l 0.0099,1.726205 0.415297,0.838442 c 0.530018,1.070058 0.742137,1.97225 0.742137,3.15649 0,1.74056 -0.6021,3.37316 -1.667485,4.521399 l -0.574992,0.619709 -0.535153,-0.406019 c -0.294335,-0.223309 -0.899271,-0.582261 -1.344304,-0.79767 -2.186856,-1.058498 -4.414109,-0.875984 -6.530963,0.535188 -0.41972,0.2798 -0.814815,0.542099 -0.877989,0.582887 -0.07126,0.04601 -0.320649,-0.153244 -0.656947,-0.524865 z m 1.834163,-1.928052 c 0.500749,-0.250399 0.926088,-0.46948 0.945198,-0.486848 0.01911,-0.01737 -0.242966,-0.354245 -0.582392,-0.748617 -0.745704,-0.866419 -1.270288,-1.661601 -1.747842,-2.649436 l -0.357646,-0.739802 -0.142019,0.443881 c -0.218984,0.684435 -0.206969,2.484819 0.02107,3.156489 0.25503,0.751187 0.658194,1.479604 0.81893,1.479604 0.07384,0 0.543958,-0.204871 1.044706,-0.455271 z m 8.335423,-0.21055 c 0.166515,-0.366203 0.350391,-0.843375 0.408614,-1.060384 0.215884,-0.804655 0.05457,-3.066988 -0.215555,-3.022942 -0.04175,0.0068 -0.256571,0.356844 -0.477378,0.777858 -0.42851,0.817048 -0.908433,1.502222 -1.695963,2.421285 -0.268992,0.313917 -0.460944,0.598892 -0.426561,0.633275 0.121233,0.121233 1.79012,0.9003 1.94607,0.90846 0.102806,0.0054 0.263801,-0.224372 0.460773,-0.657552 z M 19.777378,22.951343 C 20.357893,22.5267 21.322192,21.481761 21.80822,20.750668 22.718489,19.38143 23.210276,17.823361 23.29855,16.029047 23.413896,13.68443 22.907505,11.736222 21.721739,9.9626691 21.253883,9.2628959 19.85646,7.8700381 19.346973,7.5956613 18.99066,7.4037743 18.985776,7.4037805 18.618354,7.5965848 c -0.584652,0.3067959 -2.103214,1.887359 -2.63006,2.7374422 -1.015653,1.63879 -1.401237,3.1583 -1.30728,5.151721 0.138568,2.939857 1.142922,5.332771 2.934459,6.991459 0.976928,0.904486 1.435963,1.005158 2.161905,0.474136 z" id="path1100"/>
  <path style="fill:#ffffff;stroke-width:0.0986403" d="m 21.999113,31.894911 -0.26181,-0.311142 0.0311,-1.609867 c 0.02932,-1.517792 0.04382,-1.622574 0.253539,-1.832042 0.338077,-0.337675 0.957111,-0.308661 1.273971,0.05971 0.239934,0.278939 0.242144,0.299376 0.211472,1.954831 -0.03004,1.621332 -0.03818,1.678755 -0.263865,1.861298 -0.137834,0.111486 -0.385852,0.188354 -0.607733,0.188354 -0.299498,0 -0.427502,-0.06256 -0.636674,-0.311143 z" id="path1139"/>
  <path style="fill:#ffffff;stroke-width:0.0986403" d="m 18.347596,29.130814 c -0.255994,-0.304232 -0.26268,-0.344514 -0.230709,-1.389871 0.03035,-0.992179 0.05118,-1.091322 0.265794,-1.264932 0.137849,-0.11151 0.385829,-0.188374 0.607734,-0.188374 0.300108,0 0.42748,0.06253 0.638705,0.313557 0.254887,0.302916 0.262717,0.348404 0.23071,1.340365 -0.03176,0.984275 -0.0446,1.036661 -0.309894,1.264687 -0.407041,0.349857 -0.868862,0.320884 -1.20234,-0.07543 z" id="path1178"/>
  <path style="fill:#ffffff;stroke-width:0.0986403" d="m 18.618422,32.059023 c -0.396352,-0.172272 -0.563723,-0.515021 -0.477065,-0.976949 0.0801,-0.426989 0.376531,-0.651545 0.860078,-0.651545 0.285194,0 0.419046,0.0656 0.619214,0.303489 0.406277,0.482833 0.281694,1.047529 -0.291067,1.319322 -0.378757,0.179732 -0.311949,0.179198 -0.71116,0.0057 z" id="path1217"/>
  <path style="fill:#ffffff;stroke-width:0.0986403" d="m 14.678243,31.967994 -0.276761,-0.23806 v -1.628159 c 0,-1.587389 0.006,-1.634532 0.239135,-1.882706 0.402223,-0.428146 1.089082,-0.324286 1.372318,0.207509 0.155399,0.291774 0.155399,3.025646 0,3.317419 -0.275664,0.517578 -0.87621,0.618366 -1.334692,0.223997 z" id="path1256"/>
</svg>
